#N canvas -8 -8 1920 997 10;
#X obj 600 183 textfile;
#X obj 600 123 openpanel;
#X obj 600 101 bng 15 250 50 0 empty empty empty 17 7 0 10 -260145
-1 -1;
#X msg 706 166 rewind;
#X obj 570 169 bng 15 250 50 0 empty empty empty 17 7 0 10 -260145
-1 -1;
#X msg 600 150 read \$1 cr;
#X obj 600 212 unpack f f f f f f f f f f;
#X text 627 99 1: laad txt bestand in;
#X text 762 168 2: zet de pointer aan het begin van het document;
#X text 446 171 3: laad gegevens in;
#X floatatom 1021 229 5 0 0 0 - - -;
#X text 1001 210 Deal Count AI;
#X obj 384 11 cnv 15 200 150 empty empty Tempo_in_laden_gegevens 20
12 0 9 -171328 -66577 0;
#X obj 400 76 tgl 15 0 empty empty empty 17 7 0 10 -2112 -1 -1 0 1
;
#X floatatom 541 56 5 0 0 0 - - -;
#X obj 436 127 metro;
#X obj 460 39 r tempo;
#X obj 460 66 sel 0 1 2;
#X msg 459 91 250;
#X msg 488 91 500;
#X msg 519 90 750;
#X obj 609 277 cnv 15 100 100 empty empty empty 20 12 0 9 -171328 -66577
0;
#X obj 628 302 hradio 20 1 0 3 empty empty Tempo_kiezer 0 -8 0 9 -2112
-1 -1 0;
#X obj 657 356 s tempo;
#X floatatom 617 357 5 0 0 0 - - -;
#X obj 19 252 cnv 15 200 160 empty empty empty 20 12 0 9 -257149 -262144
0;
#X obj 296 824 dac~;
#X obj 1066 334 line~;
#X msg 1066 306 \$1 25;
#X obj 1066 275 * 150;
#X obj 1209 267 cnv 15 100 300 empty empty Volume 20 12 0 9 -261682
-66577 0;
#X obj 1232 303 vsl 20 100 0 1 0 0 empty empty volume_tot 0 -9 0 10
-260097 -1 -1 0 1;
#X floatatom 1232 425 5 0 0 0 - - -;
#X obj 1232 483 line~;
#X msg 1232 452 \$1 25;
#X text 1205 525 anti click geluid;
#X text 1038 354 anti click geluid;
#X obj 903 562 cnv 15 100 100 empty empty High_Pass_Filter 20 12 0
9 -261234 -66577 0;
#X obj 1140 852 dac~;
#X obj 919 603 hip~;
#X floatatom 956 604 5 0 0 0 - - -;
#X obj 1065 500 *~;
#X obj 876 441 cnv 15 130 100 empty empty Teken_Golf 20 12 0 9 -147612
-262144 0;
#X obj 967 464 tgl 25 0 empty empty empty 17 7 0 10 -252347 -1 -1 1
1;
#X obj 1317 444 cnv 15 200 200 empty empty Reverb 20 12 0 9 -220544
-66577 0;
#X obj 1336 610 freeverb~;
#X obj 1434 457 hsl 35 20 0 1 0 0 empty empty empty -2 -8 0 10 -133184
-1 -1 900 1;
#X msg 1431 486 wet \$1;
#X obj 1434 511 hsl 35 20 0 1 0 0 empty empty empty -2 -8 0 10 -133184
-1 -1 2200 1;
#X msg 1431 540 dry \$1;
#X obj 1437 564 hsl 35 20 0 1 0 0 empty empty empty -2 -8 0 10 -133184
-1 -1 3100 1;
#X msg 1431 594 roomsize \$1;
#X obj 1181 628 delwrite~ delay 4000;
#X obj 1030 577 cnv 15 140 140 empty empty Delay 20 12 0 9 -54459 -262144
0;
#X obj 1055 688 vd~ delay;
#X obj 1053 666 sig~;
#X floatatom 1056 597 5 0 0 0 - - -;
#X obj 1053 426 osc~;
#X obj 808 269 cnv 15 200 160 empty empty empty 20 12 0 9 -261115 -262144
0;
#X msg 1043 628 \$1 25;
#N canvas 0 0 450 300 (subpatch) 0;
#X array Golf2 300 float 3;
#A 0 0 0 0 0 0 0 0 0 0 0 0 0 0 0 0 0 0 0 0 0 0 0 0 0 0 0 0 0 0 0 0
0 0 0 0 0 0 0 0 0 0 0 0 0 0 0 0 0 0 0 0 0 0 0 0 0 0 0 0 0 0 0 0 0 0
0 0 0 0 0 0 0 0 0 0 0 0 0 0 0 0 0 0 0 0 0 0 0 0 0 0 0 0 0 0 0 0 0 0
0 0 0 0 0 0 0 0 0 0 0 0 0 0 0 0 0 0 0 0 0 0 0 0 0 0 0 0 0 0 0 0 0 0
0 0 0 0 0 0 0 0 0 0 0 0 0 0 0 0 0 0 0 0 0 0 0 0 0 0 0 0 0 0 0 0 0 0
0 0 0 0 0 0 0 0 0 0 0 0 0 0 0 0 0 0 0 0 0 0 0 0 0 0 0 0 0 0 0 0 0 0
0 0 0 0 0 0 0 0 0 0 0 0 0 0 0 0 0 0 0 0 0 0 0 0 0 0 0 0 0 0 0 0 0 0
0 0 0 0 0 0 0 0 0 0 0 0 0 0 0 0 0 0 0 0 0 0 0 0 0 0 0 0 0 0 0 0 0 0
0 0 0 0 0 0 0 0 0 0 0 0 0 0 0 0 0 0 0 0 0 0 0 0 0 0 0 0 0 0 0;
#X coords 0 1 300 -1 200 140 1 0 0;
#X restore 809 287 graph;
#X obj 1098 426 phasor~;
#X obj 885 517 tabwrite~ Golf2;
#X obj 902 667 cnv 15 100 100 empty empty Low_Pass_Filter 20 12 0 9
-92908 -66577 0;
#X obj 918 711 lop~;
#X floatatom 957 711 5 0 0 0 - - -;
#X obj 546 202 print;
#X floatatom 309 229 5 0 0 0 - - -;
#X obj 261 336 line~;
#X msg 261 304 \$1 25;
#X obj 261 270 * 150;
#X obj 401 266 cnv 15 100 300 empty empty Volume 20 12 0 9 -261682
-66577 0;
#X text 400 524 anti click geluid;
#X obj 102 544 cnv 15 100 100 empty empty High_Pass_Filter 20 12 0
9 -261234 -66577 0;
#X obj 71 440 cnv 15 130 100 empty empty Teken_Golf 20 12 0 9 -147612
-262144 0;
#X obj 225 576 cnv 15 140 140 empty empty Delay 20 12 0 9 -54459 -262144
0;
#X obj 248 426 osc~;
#X obj 299 426 phasor~;
#X text 280 212 Company Count AI;
#X floatatom 428 418 5 0 0 0 - - -;
#X obj 427 482 line~;
#X msg 427 451 \$1 25;
#X text 400 524 anti click geluid;
#X text 234 352 anti click geluid;
#X obj 102 544 cnv 15 100 100 empty empty High_Pass_Filter 20 12 0
9 -261234 -66577 0;
#X obj 117 585 hip~;
#X floatatom 154 586 5 0 0 0 - - -;
#X obj 260 499 *~;
#X obj 71 440 cnv 15 130 100 empty empty Teken_Golf 20 12 0 9 -147612
-262144 0;
#X obj 376 626 delwrite~ delay 4000;
#X obj 225 576 cnv 15 140 140 empty empty Delay 20 12 0 9 -54459 -262144
0;
#X obj 250 687 vd~ delay;
#X obj 248 665 sig~;
#X floatatom 251 596 5 0 0 0 - - -;
#X msg 238 627 \$1 25;
#X obj 76 517 tabwrite~ Golf1;
#X obj 518 445 cnv 15 200 200 empty empty Reverb 20 12 0 9 -220544
-66577 0;
#X obj 531 609 freeverb~;
#X obj 102 649 cnv 15 100 100 empty empty Low_Pass_Filter 20 12 0 9
-92908 -66577 0;
#X obj 116 694 lop~;
#X floatatom 151 695 5 0 0 0 - - -;
#X obj 631 460 hsl 35 20 0 1 0 0 empty empty empty -2 -8 0 10 -133184
-1 -1 2000 1;
#X msg 628 483 wet \$1;
#X obj 629 511 hsl 35 20 0 1 0 0 empty empty empty -2 -8 0 10 -133184
-1 -1 3200 1;
#X msg 626 537 dry \$1;
#X msg 629 592 roomsize \$1;
#X obj 632 563 hsl 35 20 0 1 0 0 empty empty empty -2 -8 0 10 -133184
-1 -1 2900 1;
#N canvas 0 0 450 300 (subpatch) 0;
#X array Golf1 200 float 1;
#A 0 0 0 0 0 0 0 0 0 0 0 0 0 0 0 0 0 0 0 0 0 0 0 0 0 0 0 0 0 0 0 0
0 0 0 0 0 0 0 0 0 0 0 0 0 0 0 0 0 0 0 0 0 0 0 0 0 0 0 0 0 0 0 0 0 0
0 0 0 0 0 0 0 0 0 0 0 0 0 0 0 0 0 0 0 0 0 0 0 0 0 0 0 0 0 0 0 0 0 0
0 0 0 0 0 0 0 0 0 0 0 0 0 0 0 0 0 0 0 0 0 0 0 0 0 0 0 0 0 0 0 0 0 0
0 0 0 0 0 0 0 0 0 0 0 0 0 0 0 0 0 0 0 0 0 0 0 0 0 0 0 0 0 0 0 0 0 0
0 0 0 0 0 0 0 0 0 0 0 0 0 0 0 0 0 0 0 0 0 0 0 0 0 0 0 0 0 0 0 0 0;
#X coords 0 1 199 -1 200 140 1 0 0;
#X restore 18 272 graph;
#X obj 428 300 vsl 20 100 0 1 0 0 empty empty volume_tot 0 -9 0 10
-260097 -1 -1 0 1;
#X obj 160 463 tgl 25 0 empty empty empty 17 7 0 10 -252347 -1 -1 1
1;
#X text 993 276 comment;
#X obj 885 489 metro 250;
#X obj 75 487 metro 250;
#X text 374 598 zodat delay direct effect heeft op reverb;
#X text 288 590 delay in miliseconden;
#X text 372 596;
#X text 1177 596 zodat delay direct effect heeft op reverb;
#X text 1096 589 delay in miliseconden;
#X text 194 252;
#X text 235 350;
#X connect 0 0 6 0;
#X connect 0 1 3 0;
#X connect 1 0 5 0;
#X connect 2 0 1 0;
#X connect 3 0 0 0;
#X connect 4 0 0 0;
#X connect 5 0 0 0;
#X connect 6 0 67 0;
#X connect 6 1 10 0;
#X connect 10 0 29 0;
#X connect 13 0 15 0;
#X connect 15 0 4 0;
#X connect 16 0 14 0;
#X connect 16 0 17 0;
#X connect 17 0 18 0;
#X connect 17 1 19 0;
#X connect 17 2 20 0;
#X connect 18 0 15 1;
#X connect 19 0 15 1;
#X connect 20 0 15 1;
#X connect 22 0 23 0;
#X connect 22 0 24 0;
#X connect 27 0 57 0;
#X connect 28 0 27 0;
#X connect 29 0 28 0;
#X connect 31 0 32 0;
#X connect 32 0 34 0;
#X connect 33 0 41 1;
#X connect 34 0 33 0;
#X connect 39 0 38 1;
#X connect 39 0 38 0;
#X connect 40 0 39 1;
#X connect 41 0 39 0;
#X connect 41 0 45 0;
#X connect 41 0 62 0;
#X connect 41 0 64 0;
#X connect 43 0 111 0;
#X connect 45 0 38 0;
#X connect 45 0 52 0;
#X connect 45 1 38 1;
#X connect 45 1 52 0;
#X connect 46 0 47 0;
#X connect 47 0 45 0;
#X connect 48 0 49 0;
#X connect 49 0 45 0;
#X connect 50 0 51 0;
#X connect 51 0 45 0;
#X connect 54 0 38 1;
#X connect 54 0 38 0;
#X connect 55 0 54 0;
#X connect 56 0 59 0;
#X connect 57 0 41 0;
#X connect 59 0 55 0;
#X connect 64 0 38 1;
#X connect 64 0 38 0;
#X connect 65 0 64 1;
#X connect 67 0 70 0;
#X connect 68 0 76 0;
#X connect 69 0 68 0;
#X connect 70 0 69 0;
#X connect 76 0 87 0;
#X connect 79 0 81 0;
#X connect 80 0 87 1;
#X connect 81 0 80 0;
#X connect 85 0 26 1;
#X connect 85 0 26 0;
#X connect 86 0 85 1;
#X connect 87 0 85 0;
#X connect 87 0 95 0;
#X connect 87 0 97 0;
#X connect 87 0 99 0;
#X connect 91 0 26 1;
#X connect 91 0 26 0;
#X connect 92 0 91 0;
#X connect 93 0 94 0;
#X connect 94 0 92 0;
#X connect 97 0 89 0;
#X connect 97 0 26 0;
#X connect 97 1 89 0;
#X connect 97 1 26 1;
#X connect 99 0 26 0;
#X connect 99 0 26 1;
#X connect 100 0 99 1;
#X connect 101 0 102 0;
#X connect 102 0 97 0;
#X connect 103 0 104 0;
#X connect 104 0 97 0;
#X connect 105 0 97 0;
#X connect 106 0 105 0;
#X connect 108 0 79 0;
#X connect 109 0 112 0;
#X connect 111 0 62 0;
#X connect 112 0 95 0;
